<?xml version="1.0" standalone="no"?>
<!DOCTYPE svg PUBLIC "-//W3C//DTD SVG 20010904//EN"
 "http://www.w3.org/TR/2001/REC-SVG-20010904/DTD/svg10.dtd">
<svg version="1.0" xmlns="http://www.w3.org/2000/svg"
 width="3333.000000pt" height="3333.000000pt" viewBox="0 0 3333.000000 3333.000000"
 preserveAspectRatio="xMidYMid meet">
<metadata>
Created by potrace 1.11, written by Peter Selinger 2001-2013
</metadata>
<g transform="translate(0.000000,3333.000000) scale(0.100000,-0.100000)"
fill="#000000" stroke="none">
<path d="M17662 25428 l3 -262 225 -32 c262 -37 512 -81 730 -130 2038 -454
3711 -1555 4910 -3229 63 -89 98 -129 109 -127 45 10 497 145 503 150 13 14
-285 414 -508 682 -196 236 -302 350 -578 625 -342 341 -605 571 -967 841
-1228 920 -2681 1513 -4199 1714 -85 11 -172 22 -193 25 l-37 5 2 -262z"/>
<path d="M15510 25668 c-480 -67 -911 -155 -1320 -271 -1164 -330 -2242 -888
-3200 -1656 -353 -284 -824 -734 -1115 -1066 -260 -298 -664 -820 -647 -837 9
-9 473 -188 488 -188 7 0 59 64 115 142 637 881 1466 1649 2374 2200 974 591
2114 991 3260 1143 66 9 130 18 143 21 l22 4 0 260 0 260 -27 -1 c-16 -1 -57
-6 -93 -11z"/>
<path d="M16235 24904 c-22 -2 -110 -9 -195 -15 -1667 -117 -3304 -779 -4619
-1867 l-113 -94 243 -244 c134 -134 246 -244 249 -244 3 0 73 55 155 121 1136
913 2518 1480 3960 1624 487 48 1039 48 1520 -1 1460 -147 2840 -718 3994
-1652 l103 -84 55 53 c30 30 139 142 243 249 l188 196 -118 97 c-499 409
-1095 790 -1669 1064 -963 461 -1968 721 -3066 793 -134 9 -829 11 -930 4z"/>
<path d="M16266 23899 c-1611 -92 -3141 -716 -4361 -1778 -163 -142 -470 -446
-623 -616 -429 -479 -780 -992 -1072 -1570 -456 -902 -711 -1858 -770 -2885
-5 -96 -10 -221 -10 -277 l0 -103 3615 0 3615 0 0 -3620 0 -3620 108 0 c139 0
417 16 612 35 1494 146 2913 760 4055 1754 163 142 470 446 623 616 429 479
780 992 1072 1570 456 902 711 1858 770 2885 5 96 10 221 10 278 l0 102 -3620
0 -3620 0 0 3620 0 3620 -132 -1 c-73 -1 -196 -6 -272 -10z"/>
<path d="M2700 23377 c0 -24 631 -2712 638 -2718 11 -11 5924 -1812 5950
-1813 22 -1 29 13 91 204 222 674 522 1292 908 1870 72 108 81 126 66 133 -10
4 -1723 527 -3808 1162 -2084 635 -3802 1159 -3817 1165 -21 6 -28 6 -28 -3z"/>
<path d="M26797 22219 c-2106 -642 -3830 -1169 -3833 -1171 -2 -2 34 -60 80
-129 385 -578 685 -1195 907 -1869 62 -191 69 -205 91 -204 26 1 5939 1802
5950 1813 9 8 639 2702 636 2717 -2 6 -1647 -491 -3831 -1157z"/>
<path d="M3470 20068 c5 -18 120 -510 255 -1093 136 -583 252 -1065 259 -1072
9 -10 4990 -1533 5013 -1533 4 0 6 105 4 234 -7 501 45 1048 149 1566 20 102
37 186 36 187 -2 2 -5713 1743 -5719 1743 -3 0 -2 -15 3 -32z"/>
<path d="M26995 19228 c-1567 -478 -2850 -870 -2851 -871 -1 -1 16 -85 36
-187 104 -518 156 -1065 149 -1566 -2 -129 0 -234 4 -234 23 0 5004 1523 5013
1533 7 7 123 489 259 1072 135 583 250 1075 255 1093 6 23 5 32 -3 31 -7 0
-1294 -392 -2862 -871z"/>
<path d="M4115 17309 c3 -13 133 -570 289 -1237 156 -667 287 -1217 292 -1222
8 -7 5060 -1550 5077 -1550 4 0 -6 27 -23 60 -146 289 -337 791 -451 1187
-109 378 -207 863 -244 1211 -4 34 -10 64 -14 66 -4 3 -1109 341 -2455 751
-1346 410 -2454 749 -2462 752 -12 4 -14 0 -9 -18z"/>
<path d="M26760 16581 c-1345 -411 -2452 -750 -2461 -753 -12 -5 -19 -25 -24
-70 -24 -224 -95 -621 -161 -896 -115 -484 -342 -1122 -534 -1502 -17 -33 -27
-60 -23 -60 17 0 5069 1543 5077 1550 5 5 136 555 292 1222 156 667 286 1223
289 1236 3 12 2 21 -2 21 -5 -1 -1108 -337 -2453 -748z"/>
<path d="M8220 13345 c0 -18 153 -364 245 -553 570 -1171 1374 -2205 2370
-3047 1357 -1147 2992 -1864 4743 -2080 l52 -7 0 261 0 261 -22 4 c-13 2 -104
16 -203 31 -2350 343 -4500 1708 -5838 3707 -219 326 -423 681 -588 1023 -45
94 -84 172 -85 174 -3 3 -582 204 -651 225 -13 4 -23 4 -23 1z"/>
<path d="M24845 13245 c-143 -58 -294 -116 -335 -130 l-76 -25 -79 -162 c-853
-1731 -2233 -3108 -3959 -3948 -810 -395 -1623 -645 -2510 -774 l-221 -32 -3
-262 -2 -262 47 6 c1432 171 2762 666 3971 1477 1227 822 2257 1945 2977 3242
107 192 296 575 382 775 88 201 87 200 77 199 -5 0 -126 -47 -269 -104z"/>
<path d="M11799 10568 c-96 -101 -203 -213 -238 -250 l-62 -66 128 -100 c651
-508 1422 -934 2213 -1225 677 -249 1363 -401 2130 -473 235 -22 917 -30 1173
-15 1646 100 3159 653 4467 1632 107 80 200 152 207 160 9 11 -34 60 -225 259
-131 135 -241 244 -247 244 -5 -1 -76 -51 -158 -112 -1188 -891 -2592 -1403
-4092 -1493 -222 -13 -835 -7 -1020 10 -1067 101 -1945 351 -2840 810 -377
194 -749 426 -1079 674 -92 70 -171 127 -175 127 -4 0 -85 -82 -182 -182z"/>
</g>
</svg>
